<svg xmlns="http://www.w3.org/2000/svg" width="948" height="538" viewBox="0 0 948 538" font-family="system-ui,-apple-system,Segoe UI,sans-serif">
<rect width="948" height="538" fill="#fcfcfb"/>
<text x="24" y="30" font-size="19" font-weight="700" fill="#0b0b0b">Hướng B — ΔAUC so với backbone uniform_avg (4 phương pháp feature)</text>
<text x="24" y="52" font-size="12.5" fill="#52514e">Điểm=ΔAUC trung bình (5 seeds×10-fold); thanh=95% CI. Không điểm nào vượt mốc GIỮ +0.015 kèm p&lt;0.10 → tất cả XÓA.</text>
<text x="24" y="86" font-size="12.5" font-weight="700" fill="#0b0b0b">BM1</text>
<line x1="198.4" y1="100" x2="198.4" y2="212" stroke="#e1e0d9" stroke-width="1"/>
<text x="198.4" y="227" font-size="10" fill="#898781" text-anchor="middle">-0.10</text>
<line x1="259.6" y1="100" x2="259.6" y2="212" stroke="#e1e0d9" stroke-width="1"/>
<text x="259.6" y="227" font-size="10" fill="#898781" text-anchor="middle">-0.05</text>
<line x1="320.7" y1="100" x2="320.7" y2="212" stroke="#c3c2b7" stroke-width="1.5"/>
<text x="320.7" y="227" font-size="10" fill="#898781" text-anchor="middle">+0.00</text>
<line x1="381.8" y1="100" x2="381.8" y2="212" stroke="#e1e0d9" stroke-width="1"/>
<text x="381.8" y="227" font-size="10" fill="#898781" text-anchor="middle">+0.05</text>
<text x="164" y="125.0" font-size="11.5" fill="#0b0b0b" text-anchor="end">l1_best</text>
<line x1="320.7" y1="121.0" x2="320.7" y2="121.0" stroke="#52514e" stroke-width="2"/>
<line x1="320.7" y1="117.5" x2="320.7" y2="124.5" stroke="#52514e" stroke-width="2"/>
<line x1="320.7" y1="117.5" x2="320.7" y2="124.5" stroke="#52514e" stroke-width="2"/>
<circle cx="320.7" cy="121.0" r="4" fill="#52514e"/>
<text x="400" y="125.0" font-size="9.5" fill="#898781">+0.000</text>
<text x="164" y="151.0" font-size="11.5" fill="#0b0b0b" text-anchor="end">mi_topk</text>
<line x1="211.4" y1="147.0" x2="307.1" y2="147.0" stroke="#e34948" stroke-width="2"/>
<line x1="211.4" y1="143.5" x2="211.4" y2="150.5" stroke="#e34948" stroke-width="2"/>
<line x1="307.1" y1="143.5" x2="307.1" y2="150.5" stroke="#e34948" stroke-width="2"/>
<circle cx="259.9" cy="147.0" r="4" fill="#e34948"/>
<text x="400" y="151.0" font-size="9.5" fill="#898781">-0.050</text>
<text x="164" y="177.0" font-size="11.5" fill="#0b0b0b" text-anchor="end">pca95</text>
<line x1="228.8" y1="173.0" x2="327.0" y2="173.0" stroke="#52514e" stroke-width="2"/>
<line x1="228.8" y1="169.5" x2="228.8" y2="176.5" stroke="#52514e" stroke-width="2"/>
<line x1="327.0" y1="169.5" x2="327.0" y2="176.5" stroke="#52514e" stroke-width="2"/>
<circle cx="278.7" cy="173.0" r="4" fill="#52514e"/>
<text x="400" y="177.0" font-size="9.5" fill="#898781">-0.034</text>
<text x="164" y="203.0" font-size="11.5" fill="#0b0b0b" text-anchor="end">pls5</text>
<line x1="210.5" y1="199.0" x2="320.4" y2="199.0" stroke="#e34948" stroke-width="2"/>
<line x1="210.5" y1="195.5" x2="210.5" y2="202.5" stroke="#e34948" stroke-width="2"/>
<line x1="320.4" y1="195.5" x2="320.4" y2="202.5" stroke="#e34948" stroke-width="2"/>
<circle cx="265.5" cy="199.0" r="4" fill="#e34948"/>
<text x="400" y="203.0" font-size="9.5" fill="#898781">-0.045</text>
<text x="494" y="86" font-size="12.5" font-weight="700" fill="#0b0b0b">BM2</text>
<line x1="668.4" y1="100" x2="668.4" y2="238" stroke="#e1e0d9" stroke-width="1"/>
<text x="668.4" y="253" font-size="10" fill="#898781" text-anchor="middle">-0.10</text>
<line x1="729.6" y1="100" x2="729.6" y2="238" stroke="#e1e0d9" stroke-width="1"/>
<text x="729.6" y="253" font-size="10" fill="#898781" text-anchor="middle">-0.05</text>
<line x1="790.7" y1="100" x2="790.7" y2="238" stroke="#c3c2b7" stroke-width="1.5"/>
<text x="790.7" y="253" font-size="10" fill="#898781" text-anchor="middle">+0.00</text>
<line x1="851.8" y1="100" x2="851.8" y2="238" stroke="#e1e0d9" stroke-width="1"/>
<text x="851.8" y="253" font-size="10" fill="#898781" text-anchor="middle">+0.05</text>
<text x="634" y="125.0" font-size="11.5" fill="#0b0b0b" text-anchor="end">l1_best</text>
<line x1="790.7" y1="121.0" x2="790.7" y2="121.0" stroke="#52514e" stroke-width="2"/>
<line x1="790.7" y1="117.5" x2="790.7" y2="124.5" stroke="#52514e" stroke-width="2"/>
<line x1="790.7" y1="117.5" x2="790.7" y2="124.5" stroke="#52514e" stroke-width="2"/>
<circle cx="790.7" cy="121.0" r="4" fill="#52514e"/>
<text x="870" y="125.0" font-size="9.5" fill="#898781">+0.000</text>
<text x="634" y="151.0" font-size="11.5" fill="#0b0b0b" text-anchor="end">mi_topk</text>
<line x1="721.1" y1="147.0" x2="799.5" y2="147.0" stroke="#52514e" stroke-width="2"/>
<line x1="721.1" y1="143.5" x2="721.1" y2="150.5" stroke="#52514e" stroke-width="2"/>
<line x1="799.5" y1="143.5" x2="799.5" y2="150.5" stroke="#52514e" stroke-width="2"/>
<circle cx="759.6" cy="147.0" r="4" fill="#52514e"/>
<text x="870" y="151.0" font-size="9.5" fill="#898781">-0.025</text>
<text x="634" y="177.0" font-size="11.5" fill="#0b0b0b" text-anchor="end">pca95</text>
<line x1="683.4" y1="173.0" x2="764.8" y2="173.0" stroke="#e34948" stroke-width="2"/>
<line x1="683.4" y1="169.5" x2="683.4" y2="176.5" stroke="#e34948" stroke-width="2"/>
<line x1="764.8" y1="169.5" x2="764.8" y2="176.5" stroke="#e34948" stroke-width="2"/>
<circle cx="725.1" cy="173.0" r="4" fill="#e34948"/>
<text x="870" y="177.0" font-size="9.5" fill="#898781">-0.054</text>
<text x="634" y="203.0" font-size="11.5" fill="#0b0b0b" text-anchor="end">pls5</text>
<line x1="701.6" y1="199.0" x2="788.2" y2="199.0" stroke="#e34948" stroke-width="2"/>
<line x1="701.6" y1="195.5" x2="701.6" y2="202.5" stroke="#e34948" stroke-width="2"/>
<line x1="788.2" y1="195.5" x2="788.2" y2="202.5" stroke="#e34948" stroke-width="2"/>
<circle cx="745.1" cy="199.0" r="4" fill="#e34948"/>
<text x="870" y="203.0" font-size="9.5" fill="#898781">-0.037</text>
<text x="634" y="229.0" font-size="11.5" fill="#0b0b0b" text-anchor="end">bm2_nlp</text>
<line x1="782.6" y1="225.0" x2="840.1" y2="225.0" stroke="#008300" stroke-width="2"/>
<line x1="782.6" y1="221.5" x2="782.6" y2="228.5" stroke="#008300" stroke-width="2"/>
<line x1="840.1" y1="221.5" x2="840.1" y2="228.5" stroke="#008300" stroke-width="2"/>
<circle cx="812.7" cy="225.0" r="4" fill="#008300"/>
<text x="870" y="229.0" font-size="9.5" fill="#898781">+0.018</text>
<text x="24" y="326" font-size="12.5" font-weight="700" fill="#0b0b0b">BM3</text>
<line x1="198.4" y1="340" x2="198.4" y2="452" stroke="#e1e0d9" stroke-width="1"/>
<text x="198.4" y="467" font-size="10" fill="#898781" text-anchor="middle">-0.10</text>
<line x1="259.6" y1="340" x2="259.6" y2="452" stroke="#e1e0d9" stroke-width="1"/>
<text x="259.6" y="467" font-size="10" fill="#898781" text-anchor="middle">-0.05</text>
<line x1="320.7" y1="340" x2="320.7" y2="452" stroke="#c3c2b7" stroke-width="1.5"/>
<text x="320.7" y="467" font-size="10" fill="#898781" text-anchor="middle">+0.00</text>
<line x1="381.8" y1="340" x2="381.8" y2="452" stroke="#e1e0d9" stroke-width="1"/>
<text x="381.8" y="467" font-size="10" fill="#898781" text-anchor="middle">+0.05</text>
<text x="164" y="365.0" font-size="11.5" fill="#0b0b0b" text-anchor="end">l1_best</text>
<line x1="320.7" y1="361.0" x2="320.7" y2="361.0" stroke="#52514e" stroke-width="2"/>
<line x1="320.7" y1="357.5" x2="320.7" y2="364.5" stroke="#52514e" stroke-width="2"/>
<line x1="320.7" y1="357.5" x2="320.7" y2="364.5" stroke="#52514e" stroke-width="2"/>
<circle cx="320.7" cy="361.0" r="4" fill="#52514e"/>
<text x="400" y="365.0" font-size="9.5" fill="#898781">+0.000</text>
<text x="164" y="391.0" font-size="11.5" fill="#0b0b0b" text-anchor="end">mi_topk</text>
<line x1="234.1" y1="387.0" x2="341.7" y2="387.0" stroke="#52514e" stroke-width="2"/>
<line x1="234.1" y1="383.5" x2="234.1" y2="390.5" stroke="#52514e" stroke-width="2"/>
<line x1="341.7" y1="383.5" x2="341.7" y2="390.5" stroke="#52514e" stroke-width="2"/>
<circle cx="286.5" cy="387.0" r="4" fill="#52514e"/>
<text x="400" y="391.0" font-size="9.5" fill="#898781">-0.028</text>
<text x="164" y="417.0" font-size="11.5" fill="#0b0b0b" text-anchor="end">pca95</text>
<line x1="181.8" y1="413.0" x2="322.5" y2="413.0" stroke="#52514e" stroke-width="2"/>
<line x1="181.8" y1="409.5" x2="181.8" y2="416.5" stroke="#52514e" stroke-width="2"/>
<line x1="322.5" y1="409.5" x2="322.5" y2="416.5" stroke="#52514e" stroke-width="2"/>
<circle cx="253.4" cy="413.0" r="4" fill="#52514e"/>
<text x="400" y="417.0" font-size="9.5" fill="#898781">-0.055</text>
<text x="164" y="443.0" font-size="11.5" fill="#0b0b0b" text-anchor="end">pls5</text>
<line x1="199.1" y1="439.0" x2="337.9" y2="439.0" stroke="#52514e" stroke-width="2"/>
<line x1="199.1" y1="435.5" x2="199.1" y2="442.5" stroke="#52514e" stroke-width="2"/>
<line x1="337.9" y1="435.5" x2="337.9" y2="442.5" stroke="#52514e" stroke-width="2"/>
<circle cx="268.9" cy="439.0" r="4" fill="#52514e"/>
<text x="400" y="443.0" font-size="9.5" fill="#898781">-0.042</text>
<text x="494" y="326" font-size="12.5" font-weight="700" fill="#0b0b0b">BM4</text>
<line x1="668.4" y1="340" x2="668.4" y2="452" stroke="#e1e0d9" stroke-width="1"/>
<text x="668.4" y="467" font-size="10" fill="#898781" text-anchor="middle">-0.10</text>
<line x1="729.6" y1="340" x2="729.6" y2="452" stroke="#e1e0d9" stroke-width="1"/>
<text x="729.6" y="467" font-size="10" fill="#898781" text-anchor="middle">-0.05</text>
<line x1="790.7" y1="340" x2="790.7" y2="452" stroke="#c3c2b7" stroke-width="1.5"/>
<text x="790.7" y="467" font-size="10" fill="#898781" text-anchor="middle">+0.00</text>
<line x1="851.8" y1="340" x2="851.8" y2="452" stroke="#e1e0d9" stroke-width="1"/>
<text x="851.8" y="467" font-size="10" fill="#898781" text-anchor="middle">+0.05</text>
<text x="634" y="365.0" font-size="11.5" fill="#0b0b0b" text-anchor="end">l1_best</text>
<line x1="790.7" y1="361.0" x2="790.7" y2="361.0" stroke="#52514e" stroke-width="2"/>
<line x1="790.7" y1="357.5" x2="790.7" y2="364.5" stroke="#52514e" stroke-width="2"/>
<line x1="790.7" y1="357.5" x2="790.7" y2="364.5" stroke="#52514e" stroke-width="2"/>
<circle cx="790.7" cy="361.0" r="4" fill="#52514e"/>
<text x="870" y="365.0" font-size="9.5" fill="#898781">+0.000</text>
<text x="634" y="391.0" font-size="11.5" fill="#0b0b0b" text-anchor="end">mi_topk</text>
<line x1="790.7" y1="387.0" x2="790.7" y2="387.0" stroke="#52514e" stroke-width="2"/>
<line x1="790.7" y1="383.5" x2="790.7" y2="390.5" stroke="#52514e" stroke-width="2"/>
<line x1="790.7" y1="383.5" x2="790.7" y2="390.5" stroke="#52514e" stroke-width="2"/>
<circle cx="790.7" cy="387.0" r="4" fill="#52514e"/>
<text x="870" y="391.0" font-size="9.5" fill="#898781">+0.000</text>
<text x="634" y="417.0" font-size="11.5" fill="#0b0b0b" text-anchor="end">pca95</text>
<line x1="790.7" y1="413.0" x2="790.7" y2="413.0" stroke="#52514e" stroke-width="2"/>
<line x1="790.7" y1="409.5" x2="790.7" y2="416.5" stroke="#52514e" stroke-width="2"/>
<line x1="790.7" y1="409.5" x2="790.7" y2="416.5" stroke="#52514e" stroke-width="2"/>
<circle cx="790.7" cy="413.0" r="4" fill="#52514e"/>
<text x="870" y="417.0" font-size="9.5" fill="#898781">+0.000</text>
<text x="634" y="443.0" font-size="11.5" fill="#0b0b0b" text-anchor="end">pls5</text>
<line x1="790.7" y1="439.0" x2="790.7" y2="439.0" stroke="#52514e" stroke-width="2"/>
<line x1="790.7" y1="435.5" x2="790.7" y2="442.5" stroke="#52514e" stroke-width="2"/>
<line x1="790.7" y1="435.5" x2="790.7" y2="442.5" stroke="#52514e" stroke-width="2"/>
<circle cx="790.7" cy="439.0" r="4" fill="#52514e"/>
<text x="870" y="443.0" font-size="9.5" fill="#898781">+0.000</text>
<line x1="339.0" y1="70" x2="339.0" y2="70"/>
<text x="24" y="524" font-size="11" fill="#52514e">Mốc GIỮ +0.015 (xanh nếu đạt độ lớn). bm2_nlp là điểm gần nhất: Δ+0.018 nhưng p=0.16 → trượt.</text>
</svg>